<svg width="75" height="71" viewBox="0 0 75 71" fill="none" xmlns="http://www.w3.org/2000/svg">
<path fill-rule="evenodd" clip-rule="evenodd" d="M17.8332 0H12.9181L0.599854 24.176L9.03317 24.2L15.5682 11.1093L22.2332 24.176L30.4522 24.176L18.1339 5.03464e-06L17.8332 0Z" fill="#F8F8F8"/>
<rect x="46.0667" y="6.60001" width="28.6" height="8.8" fill="#F8F8F8"/>
<rect x="1.33325" y="51.3333" width="30.0667" height="8.06667" fill="#F8F8F8"/>
<rect x="12.3333" y="70.4" width="30.0667" height="8.06667" transform="rotate(-90 12.3333 70.4)" fill="#F8F8F8"/>
<path fill-rule="evenodd" clip-rule="evenodd" d="M73.2 41.8H54.8667H47.5333V46.9333V52.8H47.5332V57.9333H47.5333V63.8H47.5332V68.9333L47.5333 68.9333H54.8667L73.1999 68.9333V63.8H54.8667V57.9333H73.1999V52.8H54.8667V46.9333H73.2V41.8Z" fill="#F8F8F8"/>
</svg>
